<svg width="21" height="21" viewBox="0 0 21 21" fill="none" xmlns="http://www.w3.org/2000/svg">
<path d="M18.2241 17.8894C19.0444 16.9903 19.5497 15.7959 19.5497 14.4834C19.5497 13.8075 19.2675 13.0594 19.0312 12.4688C20.1469 11.5369 21 10.2506 21 8.68875C21 5.88656 18.7294 3.6225 15.9338 3.6225C15.3694 3.6225 14.9494 3.76688 14.4375 3.9375C13.9256 2.11313 12.1275 0.721875 10.1391 0.721875C9.20719 0.721875 8.58375 0.81375 7.875 1.3125C7.08094 0.387188 5.66344 0 4.34437 0C1.9425 0 0 1.9425 0 4.34437C0 5.8275 0.833437 7.09406 1.96875 7.875C1.25344 8.64937 0.721875 9.72562 0.721875 10.8609C0.721875 13.0331 2.50687 14.7722 4.59375 15.0938C4.55438 15.3497 4.34437 15.6647 4.34437 15.9338C4.34437 18.7359 6.615 21 9.41063 21C10.8806 21 12.1931 20.0353 13.125 19.0312C13.4859 19.3003 14.0175 19.5497 14.4834 19.5497C15.4941 19.5497 16.4325 19.2478 17.22 18.7425C17.7056 19.4316 18.1256 20.0812 18.4603 20.6653C18.585 20.8819 18.8016 21 19.0312 21C19.1428 21 19.2544 20.9738 19.3594 20.9147C19.6744 20.7375 19.7859 20.3372 19.6022 20.0222C19.2281 19.3725 18.7622 18.6506 18.2241 17.8894ZM13.9059 17.9812C13.6763 17.8041 13.4006 17.7188 13.125 17.7188C12.7706 17.7188 12.4163 17.8631 12.1603 18.1387C11.6288 18.7162 10.5591 19.6875 9.41063 19.6875C7.36969 19.6875 5.70937 18.0534 5.65687 16.0322C5.67 15.9994 5.68313 15.9731 5.69625 15.9403C5.76844 15.7697 5.85375 15.5531 5.89312 15.2906C5.94562 14.9494 5.86031 14.595 5.65687 14.3128C5.44687 14.0372 5.13844 13.8469 4.79063 13.7944C3.43875 13.5909 2.03437 12.4359 2.03437 10.8609C2.03437 10.1587 2.36906 9.37125 2.93344 8.76094C3.18937 8.47875 3.31406 8.10469 3.27469 7.72406C3.23531 7.34344 3.03187 7.00219 2.71687 6.79219C1.82437 6.18188 1.3125 5.28281 1.3125 4.34437C1.3125 2.67094 2.67094 1.3125 4.34437 1.3125C5.45344 1.3125 6.42469 1.64062 6.8775 2.16562C7.14 2.4675 7.5075 2.625 7.875 2.625C8.1375 2.625 8.4 2.54625 8.62969 2.38219C9.02344 2.10656 9.33187 2.03437 10.1391 2.03437C11.5041 2.03437 12.81 3.00562 13.1775 4.29187C13.2759 4.63969 13.5122 4.92844 13.8272 5.09906C14.0175 5.1975 14.2275 5.25 14.4375 5.25C14.5753 5.25 14.7197 5.23031 14.8575 5.18438L14.8903 5.17125C15.3628 5.01375 15.6056 4.935 15.9272 4.935C18.0009 4.935 19.6809 6.62156 19.6809 8.68875C19.6809 9.94219 18.8672 10.8872 18.1847 11.4581C17.745 11.8256 17.5941 12.4294 17.8106 12.9609C17.9484 13.3022 18.2372 14.0044 18.2372 14.4834C18.2372 15.3562 17.9353 16.1634 17.43 16.8C16.5572 15.6319 15.5531 14.3981 14.49 13.1644L16.9903 8.17031C17.1544 7.84875 17.0231 7.455 16.695 7.29094C16.3734 7.12687 15.9797 7.25813 15.8156 7.58625L13.5581 12.0947C12.5475 10.9528 11.5041 9.83063 10.4869 8.78719L11.1431 4.69875C11.2022 4.33781 10.9594 4.00313 10.5984 3.94406C10.2441 3.885 9.90281 4.12781 9.84375 4.48875L9.33844 7.63219C8.60344 6.89063 7.88156 6.21469 7.21875 5.62406V3.9375C7.21875 3.57656 6.92344 3.28125 6.5625 3.28125C6.20156 3.28125 5.90625 3.57656 5.90625 3.9375V4.50188C5.23688 3.97031 4.66594 3.57 4.23281 3.35344C3.90469 3.18938 3.51094 3.32063 3.35344 3.64219C3.18938 3.97031 3.32063 4.36406 3.64219 4.52156C4.21969 4.81031 5.07281 5.46 6.08344 6.3525C6.10313 6.36563 6.11625 6.37875 6.12938 6.39187C7.18594 7.32375 8.41969 8.51813 9.69937 9.84375H5.90625C5.54531 9.84375 5.25 10.1391 5.25 10.5C5.25 10.8609 5.54531 11.1562 5.90625 11.1562H10.8609C10.8872 11.1562 10.9069 11.1431 10.9331 11.1431C11.5959 11.8584 12.2653 12.6 12.915 13.3416L9.01031 14.4638C8.6625 14.5622 8.45906 14.9297 8.56406 15.2775C8.64281 15.5597 8.89875 15.75 9.1875 15.75C9.24656 15.75 9.30562 15.7434 9.37125 15.7237L13.8534 14.4375C14.7919 15.5466 15.6712 16.6425 16.4456 17.6794C15.8747 18.0338 15.1987 18.2437 14.4769 18.2437C14.4047 18.2372 14.1553 18.1584 13.9059 17.9812Z" fill="#359740"/>
</svg>
