<svg width="20" height="21" viewBox="0 0 20 21" fill="none" xmlns="http://www.w3.org/2000/svg">
<path d="M4.34722 7.65523C3.76388 8.00294 3.15344 8.21118 2.50396 8.28083C2.06638 8.33001 1.65018 8.27928 1.30209 8.14438C0.731417 7.91805 0.307998 7.51057 0.0473774 6.93757C-0.0127658 6.80534 -0.0169091 6.65218 0.0421909 6.51112C0.284157 5.92491 0.692522 5.51341 1.26181 5.26745C1.60338 5.11988 2.02356 5.0624 2.45999 5.09485C3.36216 5.16715 4.18836 5.50886 4.98354 6.11183L5.41458 6.10391C5.50461 5.73276 5.70001 5.39218 5.97411 5.11052L5.7496 4.73387C4.81432 4.37627 4.08953 3.84961 3.56067 3.11902C3.29942 2.76428 3.13454 2.38322 3.08059 2.01074C2.98974 1.3988 3.1326 0.834306 3.49998 0.322734C3.5847 0.203761 3.7179 0.124363 3.86285 0.106441C4.4876 0.0266305 5.05209 0.169491 5.54715 0.540498C5.84912 0.765134 6.10587 1.09143 6.29363 1.48998C6.68011 2.30545 6.79859 3.1935 6.66824 4.1863L6.89275 4.56294C7.26815 4.45123 7.66342 4.44595 8.03271 4.54331L8.24472 4.16793C8.08986 3.17706 8.1823 2.28778 8.546 1.46715C8.72232 1.06324 8.9709 0.728314 9.26778 0.495324C9.75034 0.114307 10.3111 -0.0518919 10.9419 0.0141273C11.0867 0.0273853 11.2195 0.103886 11.3145 0.221544C11.6992 0.72062 11.8562 1.2869 11.7792 1.89927C11.7323 2.26963 11.5789 2.65985 11.3275 3.02136C10.9573 3.55952 10.4838 3.99742 9.90042 4.34513C9.67535 4.47929 9.432 4.59322 9.17858 4.7007L8.96657 5.07608C9.101 5.2076 9.22897 5.3492 9.33028 5.51915C9.43158 5.6891 9.49525 5.86903 9.547 6.04984L9.98537 6.04377C10.7612 5.41324 11.5784 5.05062 12.4802 4.9551C12.9177 4.90593 13.3339 4.95666 13.682 5.09155C14.2527 5.31788 14.6761 5.72537 14.9368 6.29837C14.9969 6.4306 14.9964 6.58649 14.9419 6.72481C14.7425 7.20477 14.4314 7.5707 14.0135 7.81984C13.9216 7.8746 13.827 7.92477 13.7269 7.96574C13.3853 8.11332 12.9698 8.16806 12.5287 8.13835C11.6266 8.06605 10.8004 7.72434 10.0098 7.11863L9.57873 7.12655C9.49056 7.49037 9.29516 7.83095 9.02565 8.10988C9.10505 8.24308 9.18904 8.37354 9.26844 8.50675C10.1872 8.86797 10.9019 9.38818 11.4299 10.1068C11.6912 10.4616 11.856 10.8426 11.91 11.2151C11.9667 11.5922 11.9235 11.9479 11.8023 12.2878C12.1978 12.8364 12.5962 13.3584 12.9854 13.8548C13.0306 13.4606 13.1463 13.0803 13.3445 12.7132C13.7705 11.9239 14.4929 11.3501 15.4264 11.0676C16.1534 10.8459 16.9128 10.8041 17.669 10.9448C17.8587 10.9811 18.0197 11.1154 18.0815 11.3027C18.1434 11.4899 18.096 11.6925 17.9626 11.8342C17.5891 12.2312 17.1148 12.9497 17.0091 13.6601C16.8445 14.7729 16.2309 15.425 15.5465 15.833C15.3398 15.9562 15.1332 16.0482 14.9239 16.1356C16.6115 17.9434 18.1634 19.1474 19.4651 19.629C19.7436 19.7307 19.8839 20.0392 19.7823 20.3177C19.7361 20.4386 19.6542 20.531 19.5531 20.5912C19.4199 20.6706 19.2511 20.6903 19.0936 20.6348C18.1564 20.2846 17.1944 19.6628 16.2493 18.8815L16.1712 18.928C15.7879 19.2561 15.355 19.5951 14.8773 19.8798C13.977 20.4165 12.9049 20.7692 11.6657 20.518C10.7822 20.3412 9.59576 20.5753 8.84946 20.8271C8.64383 20.8999 8.41842 20.8351 8.27949 20.6751C8.14056 20.5151 8.10639 20.2802 8.20233 20.0861C8.61284 19.25 9.2038 18.4869 9.96045 17.8242C10.9083 16.9915 11.9883 16.4848 13.0818 16.3559C13.2744 16.3344 13.4606 16.323 13.6477 16.3236C13.6294 16.3034 13.6084 16.2785 13.5901 16.2583C12.677 15.2276 11.8318 14.144 11.0874 13.1248C10.4764 13.1964 9.92382 13.0527 9.44617 12.69C9.14419 12.4653 8.88744 12.139 8.69968 11.7405C8.31321 10.925 8.19472 10.037 8.32047 9.0469L8.09597 8.67026C7.72057 8.78197 7.3253 8.78725 6.95601 8.68989L6.744 9.06527C6.89887 10.0561 6.80642 10.9454 6.44272 11.766C6.2664 12.17 6.01782 12.5049 5.72094 12.7379C5.63729 12.8064 5.54816 12.8658 5.4563 12.9205C5.03831 13.1697 4.5639 13.2719 4.05142 13.2163C3.90383 13.1985 3.77382 13.1266 3.67878 13.0089C3.29415 12.5098 3.13713 11.9436 3.2141 11.3312C3.26103 10.9608 3.41439 10.5706 3.66579 10.2091C4.1815 9.46594 4.88921 8.91959 5.81014 8.5325L6.02401 8.14979C5.88958 8.01826 5.7616 7.87667 5.6603 7.70672C5.559 7.53677 5.49532 7.35684 5.44357 7.17603L5.01253 7.18396C4.78826 7.36122 4.57229 7.52107 4.34722 7.65523ZM2.37345 6.16113C2.10573 6.14018 1.86813 6.16976 1.67989 6.25083C1.44485 6.34736 1.2711 6.4945 1.14027 6.70322C1.2754 6.90903 1.45841 7.04895 1.69565 7.14409C1.88343 7.21892 2.12271 7.24437 2.39149 7.21489C2.93639 7.15777 3.43121 6.97487 3.91448 6.66814C3.41738 6.36682 2.91622 6.20489 2.37345 6.16113ZM10.4388 2.41812C10.5926 2.19572 10.684 1.97313 10.7075 1.77237C10.7394 1.52302 10.6961 1.29363 10.5839 1.07413C10.3381 1.08992 10.126 1.17276 9.92931 1.3336C9.77305 1.45786 9.62941 1.65553 9.52049 1.90099C9.30079 2.39923 9.20483 2.91709 9.23068 3.49308C9.7377 3.21576 10.1312 2.86292 10.4388 2.41812ZM12.6033 7.07295C12.8711 7.0939 13.1087 7.06432 13.2969 6.98325C13.5292 6.88213 13.7076 6.73225 13.8365 6.53087C13.7014 6.32505 13.5184 6.18513 13.2839 6.09458C13.0961 6.01976 12.8568 5.9943 12.588 6.02379C12.0431 6.0809 11.5529 6.26106 11.0651 6.57053C11.5594 6.86726 12.0606 7.02919 12.6033 7.07295ZM15.9522 13.5057C16.0354 12.9456 16.2708 12.4007 16.551 11.9411C16.2767 11.9614 16.0069 12.0101 15.7325 12.0928C15.2754 12.2345 14.6436 12.5427 14.2766 13.2221C14.0618 13.624 13.8444 14.2516 14.2634 15.2469C15.3393 14.8795 15.8203 14.3811 15.9522 13.5057ZM4.53799 10.816C4.3842 11.0384 4.29277 11.2609 4.26926 11.4617C4.2401 11.7157 4.27612 11.9432 4.39288 12.16C4.63869 12.1442 4.85077 12.0613 5.04749 11.9005C5.20375 11.7762 5.34738 11.5785 5.45631 11.3331C5.67601 10.8348 5.77196 10.317 5.74612 9.741C5.2391 10.0183 4.84558 10.3712 4.53799 10.816ZM4.90362 1.40342C4.70048 1.2506 4.48611 1.17295 4.23853 1.1649C4.13244 1.38377 4.09877 1.60926 4.13196 1.86339C4.16349 2.06248 4.26372 2.28286 4.41899 2.50157C4.74419 2.9427 5.1412 3.285 5.65216 3.54692C5.66209 2.96828 5.55445 2.4535 5.31926 1.96495C5.20993 1.71886 5.06376 1.52585 4.90362 1.40342ZM13.2034 17.4163C12.3264 17.522 11.4439 17.9422 10.6578 18.6287C10.3517 18.8983 10.0776 19.18 9.83643 19.4856C10.5117 19.3756 11.2408 19.3457 11.876 19.4713C13.0079 19.6993 14.0701 19.3089 15.415 18.1711C14.8428 17.5348 14.1447 17.3035 13.2034 17.4163ZM10.0732 11.8307C10.2763 11.9835 10.4907 12.0611 10.7383 12.0692C10.8444 11.8503 10.8826 11.6221 10.8448 11.3707C10.8133 11.1716 10.7131 10.9512 10.5578 10.7325C10.2326 10.2914 9.83559 9.94909 9.32463 9.68716C9.31471 10.2658 9.42235 10.7806 9.65753 11.2691C9.76687 11.5152 9.91304 11.7082 10.0732 11.8307ZM8.03597 7.53568C8.54123 7.23452 8.70821 6.57472 8.40704 6.06946C8.10587 5.56421 7.44607 5.39723 6.94082 5.6984C6.43557 5.99956 6.26859 6.65936 6.56975 7.16462C6.87092 7.66987 7.53072 7.83685 8.03597 7.53568Z" fill="#359740"/>
</svg>
