<svg width="14" height="18" viewBox="0 0 14 18" fill="none" xmlns="http://www.w3.org/2000/svg">
<path d="M5.25243 1.62435L3.72845 0.214956C3.42006 -0.0716521 2.93686 -0.0716521 2.62846 0.214956L1.10409 1.62435C0.404727 2.27432 0 3.18283 0 4.13386V10.1289C0 10.6037 0.399636 11.0115 0.877864 11.0115H2.66477V12.5827C2.26705 12.7732 1.94886 13.1883 1.94886 13.6701V16.8146C1.94886 17.4765 2.50691 18 3.1737 18H3.17577C3.8426 18 4.375 17.4765 4.375 16.8146V13.6701C4.375 13.1883 4.09659 12.7732 3.69886 12.5827V11.0018V8.4885C3.69886 8.29677 3.84121 8.16869 4.03439 8.16869H4.03494C4.22808 8.16869 4.375 8.29677 4.375 8.4885V11.0115H5.46784C5.94606 11.0115 6.36364 10.6037 6.36364 10.1289V4.13386C6.36364 3.18283 5.95179 2.27432 5.25243 1.62435ZM13.4917 0.429982H13.4507C13.1565 0.429982 12.9261 0.647139 12.9261 0.939236V3.70582C12.9261 4.11029 12.5836 4.45727 12.1762 4.45727H12.1742C11.7667 4.45727 11.4148 4.11029 11.4148 3.70582V0.939236C11.4148 0.647139 11.2 0.429982 10.9057 0.429982H10.9037C10.6094 0.429982 10.3807 0.647139 10.3807 0.939236V3.70582C10.3807 4.11029 10.0426 4.45727 9.63522 4.45727H9.63319C9.22576 4.45727 8.90909 4.11029 8.90909 3.70582V0.939236C8.90909 0.647139 8.65896 0.429982 8.36472 0.429982H8.36269C8.06845 0.429982 7.83523 0.647139 7.83523 0.939236V10.0868C7.83523 10.5848 8.24266 11.0115 8.74431 11.0115H10.4205V12.5827C9.98295 12.7732 9.70455 13.1883 9.70455 13.6701V16.8146C9.70455 17.4765 10.2585 18 10.9254 18H10.9246C11.5914 18 12.1307 17.4765 12.1307 16.8146V13.6701C12.1307 13.1883 11.8523 12.7732 11.4148 12.5827V8.44021C11.4943 8.27138 11.5943 8.14132 11.7709 8.14132C11.964 8.14132 12.1307 8.29677 12.1307 8.4885V11.0115H13.1162C13.6179 11.0115 14 10.5848 14 10.0868V0.939236C14 0.647139 13.786 0.429982 13.4917 0.429982Z" fill="#359740"/>
</svg>
