<svg width="22" height="22" viewBox="0 0 22 22" fill="none" xmlns="http://www.w3.org/2000/svg">
<path d="M18.8204 5.61245C17.5736 3.70939 15.6213 2.50963 13.5266 2.17177C13.5479 2.02697 13.5266 1.86838 13.4482 1.73047C13.2986 1.46846 12.9922 1.32366 12.6787 1.38572L8.35381 2.24761L7.75532 0.46866C7.66982 0.213539 7.43469 0.02737 7.15682 -0.000210622C6.87894 -0.0277913 6.60819 0.103217 6.46569 0.337652L5.17606 2.46826C4.29969 1.82011 3.22381 1.37882 2.13369 1.37882C1.74181 1.37882 1.42119 1.6891 1.42119 2.06834C1.42119 2.44757 1.74181 2.75785 2.13369 2.75785C2.96019 2.75785 3.78669 3.14398 4.44219 3.66112L0.316815 6.32265C0.0531897 6.48814 -0.0608102 6.80531 0.0318147 7.09491C0.117315 7.38451 0.39519 7.58447 0.70869 7.58447H2.61106L1.44256 11.5354C1.35706 11.8388 1.48531 12.156 1.76319 12.3145C1.87719 12.3835 2.00544 12.4042 2.13369 12.4042C2.14794 14.6589 3.18106 16.8447 5.08344 18.2513C7.89781 20.3267 11.9947 21.3817 17.2672 21.3817C17.4667 21.3817 17.6662 21.3817 17.8657 21.3748C19.5187 21.3472 20.9223 20.1268 21.1289 18.534C21.8058 13.3281 21.0292 8.98418 18.8204 5.61245ZM19.7182 18.3616C19.5971 19.2787 18.7991 19.982 17.8514 19.9958C12.6146 20.0716 8.61031 19.1201 5.95269 17.155C4.08594 15.7759 3.25231 13.466 3.66556 11.2458L4.69156 10.2874C3.75106 12.5628 4.42794 15.1622 6.38732 16.6102C8.81694 18.403 12.4792 19.3131 17.2672 19.3131C17.4596 19.3131 17.6519 19.3131 17.8514 19.3062C18.2433 19.2993 18.5568 18.9822 18.5497 18.6029C18.5426 18.2237 18.2219 17.9272 17.8372 17.9272C17.8301 17.9272 17.8301 17.9272 17.8229 17.9272C13.0848 18.01 9.52231 17.1825 7.25656 15.5139C5.73181 14.39 5.26157 12.287 6.14506 10.5218L7.99044 12.8386C8.11869 13.0041 8.33244 13.1006 8.54619 13.1006C8.62457 13.1006 8.70294 13.0868 8.77419 13.0661C9.06631 12.9696 9.25869 12.7076 9.25869 12.4111V7.50172L14.3317 6.88806C14.6523 6.84668 14.9088 6.60535 14.9516 6.29507C14.9943 5.98479 14.8162 5.6883 14.5169 5.56418L11.5102 4.37132L12.4222 3.45427C14.4528 3.48874 16.4264 4.52302 17.6163 6.34334C19.6398 9.44616 20.3523 13.4867 19.7182 18.3616ZM5.37556 4.70918C5.38981 4.70229 5.38981 4.69539 5.39694 4.6885C5.58931 4.98499 5.69619 5.27459 5.69619 5.51592C5.69619 5.89515 6.01681 6.20543 6.40869 6.20543C6.80056 6.20543 7.12119 5.89515 7.12119 5.51592C7.12119 4.86088 6.77919 4.1231 6.22344 3.45427L6.88607 2.35793L7.19244 3.2681C7.30644 3.60596 7.66269 3.79902 8.01182 3.73007L10.6979 3.19225L9.74319 4.15068C9.57932 4.31616 9.50807 4.5506 9.55794 4.77124C9.60781 4.99189 9.76457 5.17806 9.98544 5.26769L11.4532 5.84689L8.45356 6.21233C8.10444 6.2537 7.83369 6.55019 7.83369 6.89495V10.3839L6.05244 8.14297C5.93131 7.98439 5.73894 7.88785 5.53944 7.87406C5.52519 7.87406 5.50381 7.87406 5.48956 7.87406C5.30431 7.87406 5.12619 7.94301 4.99081 8.06713L3.55156 9.41858L4.24269 7.07422C4.30681 6.87427 4.26406 6.65362 4.12869 6.48124C3.99331 6.30886 3.77956 6.20543 3.55869 6.20543H3.05994L5.37556 4.70918Z" fill="#359740"/>
</svg>
