<svg width="21" height="23" viewBox="0 0 21 23" fill="none" xmlns="http://www.w3.org/2000/svg">
<path d="M19.9061 21.7229C20.0133 21.5565 20.0504 21.3544 20.0093 21.1608C19.9682 20.9672 19.8522 20.7977 19.6866 20.6893C18.8757 20.163 17.9347 19.5468 16.9232 18.8515C17.3171 17.2692 17.5713 15.6554 17.6829 14.0286C17.8449 11.1543 17.3522 8.84378 16.216 7.03017C14.0043 3.52649 9.78976 2.6657 6.39895 1.97148C4.31392 1.5461 2.34734 1.14992 1.54253 0.248537C1.44783 0.143123 1.3252 0.0667294 1.18886 0.0282147C1.05252 -0.0102999 0.908061 -0.00935819 0.772231 0.0309327C0.636402 0.0712236 0.514769 0.149212 0.421439 0.255853C0.32811 0.362494 0.266907 0.493418 0.244929 0.633442C0.151859 1.08624 -1.31203 11.4787 4.18181 16.9394C6.89011 19.6226 10.7894 20.6158 15.7842 19.8836C16.9092 20.6979 17.9528 21.3575 18.873 21.9425C19.0393 22.0497 19.2412 22.0868 19.4348 22.0457C19.6283 22.0046 19.7977 21.8885 19.9061 21.7229V21.7229ZM5.22476 15.8794C1.34317 12.0413 1.4309 5.02543 1.59291 2.15113C3.02946 2.78435 4.54482 3.22084 6.09802 3.4488C9.3704 4.11381 13.0729 4.87065 14.9476 7.82971C16.3801 10.1106 16.591 13.4264 15.5951 17.9131C11.657 15.0781 7.21427 11.2084 5.83546 6.77547C5.76823 6.59628 5.63503 6.4496 5.46317 6.36551C5.29131 6.28142 5.09381 6.26628 4.91115 6.32319C4.72848 6.3801 4.57449 6.50476 4.48073 6.67161C4.38697 6.83846 4.36055 7.03487 4.40688 7.22057C5.82213 11.8057 10.0404 15.6628 13.9518 18.5714C10.2302 18.8197 7.30886 17.9192 5.24015 15.8728L5.22476 15.8794Z" fill="#359740"/>
</svg>
